<svg width="119" height="40" viewBox="0 0 119 40" fill="none" xmlns="http://www.w3.org/2000/svg">
<path d="M47.7284 28.3637V32.9546C47.7284 33.1819 47.8197 33.4092 47.9111 33.5455C48.0024 33.7273 48.0937 33.9092 48.2764 34.0001C48.4591 34.091 48.6875 34.1364 49.0072 34.1364C49.2812 34.1364 49.5553 34.091 49.738 34.0001C49.9207 33.9092 50.012 33.7273 50.1034 33.5455C50.1947 33.3637 50.1947 33.1819 50.2404 32.9546V28.3637H52.113V32.591C52.113 33.7273 51.8846 34.5001 51.3822 35.0455C50.7188 35.5956 49.869 35.8721 49.0072 35.8182C47.9567 35.8182 47.1803 35.5455 46.6322 35.0455C46.1298 34.5001 45.8558 33.6819 45.8558 32.591V28.3637H47.7284ZM54.9447 35.6364V28.3637H56.7716L60.2428 32.7728V28.3637H62.0697V35.6364H60.2428L56.8173 31.1819V35.6364H54.9447ZM66.8197 28.3637V35.6364H64.9928V28.3637H66.8197ZM70.9303 28.3637L72.7115 32.7728L74.4471 28.3637H76.4567L73.4423 35.6364H71.9351L68.9207 28.3637H70.9303ZM82.6683 30.0001H80.3846V31.1819H82.4856V32.7273H80.3846V33.9546H82.6226V35.591H78.512V28.3182H82.6226V30.0001H82.6683ZM91.3005 35.6364H89.0168L87.1899 32.8182V35.6364H85.363V28.3637H88.2404C88.6514 28.3637 89.0168 28.4546 89.2909 28.5455C89.5604 28.6693 89.7955 28.8565 89.976 29.091L90.4327 29.8182C90.4784 30.091 90.5697 30.3637 90.5697 30.6819C90.5926 31.1499 90.4497 31.611 90.1659 31.9848C89.8821 32.3586 89.4754 32.6214 89.0168 32.7273L91.2548 35.6819L91.3005 35.6364ZM87.1899 31.6364H87.5553C87.8828 31.6573 88.2069 31.5605 88.4688 31.3637C88.6058 31.2273 88.7428 31.0001 88.7428 30.7273C88.7428 30.4546 88.6514 30.1819 88.4231 30.0455C88.1735 29.8589 87.8673 29.7627 87.5553 29.7728H87.1899V31.6364ZM97.375 30.2273C97.1766 30.082 96.9621 29.96 96.7356 29.8637C96.561 29.7965 96.3745 29.7655 96.1875 29.7728C95.9743 29.7625 95.7642 29.8268 95.5938 29.9546C95.4567 30.0455 95.3654 30.2273 95.3654 30.4092C95.3654 30.5455 95.3654 30.6364 95.4567 30.7273L95.7764 30.9092L96.2332 31.091L96.6899 31.2273C97.2837 31.4546 97.7404 31.6819 98.0144 32.0455C98.3109 32.4389 98.4712 32.9174 98.4712 33.4092C98.4593 33.7539 98.3818 34.0932 98.2428 34.4092C98.1514 34.7273 97.9688 34.9546 97.6947 35.1819C97.4663 35.4092 97.1923 35.5455 96.7812 35.6364C96.4615 35.8182 96.0962 35.8637 95.6394 35.8637C94.726 35.8637 93.9038 35.591 93.0817 35.0455L93.9038 33.5455C94.1478 33.7686 94.4252 33.9526 94.726 34.091C94.982 34.2145 95.2635 34.2767 95.5481 34.2728C95.8221 34.2728 96.0505 34.2273 96.1875 34.0455C96.3702 33.9092 96.4159 33.7273 96.4159 33.591L96.3702 33.2728C96.3281 33.1959 96.2647 33.1328 96.1875 33.091L95.3654 32.6819L94.6346 32.4546C94.3606 32.3637 94.1779 32.2273 93.9952 32.091C93.8075 31.9341 93.6656 31.7301 93.5841 31.5001C93.4471 31.2728 93.4471 31.0001 93.4471 30.591C93.4471 30.2273 93.4928 29.9546 93.6298 29.6364C93.74 29.3513 93.9115 29.0937 94.1325 28.8816C94.3534 28.6696 94.6184 28.5083 94.9087 28.4092C95.2292 28.2864 95.57 28.2247 95.9135 28.2273C96.7113 28.2393 97.4945 28.442 98.1971 28.8182L97.375 30.2273ZM102.764 28.3637V35.6364H100.938V28.3637H102.764ZM108.337 30.0001V35.6364H106.51V29.9546H104.957V28.3637H109.889V30.0001H108.337ZM114.274 32.1364L111.625 28.3637H113.909L115.233 30.3637L116.512 28.3637H118.75L116.147 32.1364V35.6364H114.274V32.1364ZM30.9207 23.6364H31.9711L33.2043 20.1819L34.4832 23.591H35.5337L37.9543 16.8637H37.3606L35.3966 22.3182L33.2957 16.8637H32.0168L32.9303 19.3182L31.8341 22.3182L29.7788 16.8637H27.8606V17.0455C28.637 17.1819 28.5913 17.2273 28.8197 17.7728L30.9207 23.591V23.6364ZM54.351 23.091C53.7115 23.091 53.7115 23.091 53.7115 22.3637V16.8637H52.387V23.591H56.3606V23.1364H54.3966L54.351 23.091ZM49.0986 20.4546C50.149 20.3637 50.7428 19.7728 50.7428 18.6364C50.7428 16.8182 48.6875 16.8182 47.9567 16.8182H45.7644V23.6364H47.0889V17.3182H47.9111C48.7332 17.3182 49.3726 17.591 49.3726 18.6819C49.3726 19.9092 48.4591 20.1364 47.8197 20.1364H47.637L49.738 23.5455H51.1995L49.0986 20.4092V20.4546ZM59.7861 16.8182H57.5024V23.5455H59.4663C61.3846 23.5455 63.0288 23.3637 63.0288 20.1819C63.0745 17.3637 61.6586 16.8182 59.7861 16.8182ZM59.4663 23.091C58.7812 23.091 58.7812 22.8182 58.7812 22.4092V17.2728H59.6034C61.4303 17.2728 61.6586 18.4092 61.6586 20.1819C61.6586 22.2273 61.2933 23.091 59.4663 23.091ZM41.2885 16.591C38.9135 16.591 38.274 18.0001 38.274 20.2273C38.274 22.5001 38.9591 23.8182 41.2885 23.8182C43.5721 23.8182 44.2572 22.4546 44.2572 20.1819C44.2572 18.0001 43.5721 16.591 41.2885 16.591ZM41.2885 23.3182C39.8269 23.3182 39.6899 21.591 39.6899 20.2273C39.6899 18.8637 39.8269 17.1364 41.2885 17.1364C42.75 17.1364 42.8413 18.9092 42.8413 20.2273C42.8413 21.5455 42.75 23.3182 41.2885 23.3182ZM76.0913 21.1819C76.0913 22.2273 76.0457 23.3182 74.4014 23.3182C72.9856 23.3182 72.9856 22.2273 72.9856 21.1819V16.8182H71.6154V21.5001C71.6154 23.3182 72.6202 23.7728 74.3558 23.7728C76.7308 23.7728 76.7764 22.3182 76.7764 21.0001V16.8182L76.0913 16.7728V21.1819ZM97.0553 17.2728V16.8182H91.6659V17.2728H93.7212V23.5455H95V17.2728H97.0553ZM89.9303 22.2728L86.7788 16.8182H85.4543V23.5455H86.0938V17.8182L89.4279 23.5455H90.5697V16.7728H89.9303V22.2728ZM83.4904 16.8182L82.7139 18.9546H80.2476L79.4712 16.8182H77.5529V17.0455C78.3293 17.1364 78.2837 17.1819 78.512 17.7273L80.613 23.5455H81.7091L84.1298 16.8182H83.4904ZM81.5264 22.2728L80.4303 19.4092H82.5769L81.5264 22.2728ZM67.1851 23.2728C65.7236 23.2728 65.5865 21.591 65.5865 20.1819C65.5865 18.8182 65.7236 17.091 67.1851 17.091C68.6466 17.091 68.738 18.9092 68.738 20.1819C68.738 21.5455 68.6466 23.2728 67.1851 23.2728ZM70.1538 20.2273C70.1538 17.9546 69.4688 16.591 67.1851 16.591C64.8101 16.591 64.1707 18.0001 64.1707 20.2273C64.1707 22.5001 64.8558 23.8182 67.1851 23.8182H70.4736V23.591C69.6971 23.4546 69.149 23.3637 69.4688 22.9092C69.9712 22.2273 70.1538 21.3637 70.1538 20.1819V20.2273ZM35.3053 29.3182C33.7985 31.8784 31.6717 34.0224 29.1189 35.5548C26.566 37.0871 23.6682 37.959 20.6899 38.091V40.0001C27.3582 39.7273 33.4784 36.1819 36.9495 30.3182L35.3053 29.3182ZM19.6394 30.1819C17.2461 30.1946 14.9261 29.3605 13.0935 27.8284C11.2609 26.2964 10.0349 24.1662 9.63435 21.8179C9.23376 19.4696 9.68466 17.056 10.9066 15.008C12.1285 12.9599 14.0419 11.4105 16.3053 10.6364C18.863 9.72733 21.6034 9.90915 24.024 11.091L23.2019 12.7273C21.7448 12.0704 20.1267 11.8508 18.5461 12.0955C16.9654 12.3401 15.4908 13.0384 14.3029 14.1047C13.1151 15.1711 12.2657 16.5591 11.8588 18.0988C11.4518 19.6385 11.5051 21.2628 12.012 22.7728C12.3561 23.7782 12.8969 24.7059 13.603 25.5022C14.3092 26.2986 15.1669 26.948 16.1265 27.4128C17.0861 27.8776 18.1287 28.1488 19.1941 28.2105C20.2596 28.2723 21.3268 28.1236 22.3341 27.7728L22.9736 29.591C21.9231 29.9546 20.7812 30.1364 19.6851 30.1364L19.6394 30.1819ZM11.3269 10.091C13.6106 8.18188 16.488 7.04552 19.5481 7.00006V5.09097C15.9856 5.18188 12.6971 6.45461 10.0481 8.72733L11.3269 10.091Z" fill="#41395F"/>
<path d="M8.63221 13.3182C8.95192 12.7728 9.31731 12.2273 9.77404 11.7273L8.44952 10.3637C6.13519 13.0815 4.86497 16.5284 4.86497 20.091C4.86497 23.6535 6.13519 27.1004 8.44952 29.8182L9.81971 28.4546C8.07799 26.3612 7.02903 23.7833 6.81645 21.0736C6.60387 18.364 7.23807 15.6553 8.63221 13.3182ZM26.9928 31.0455C24.6491 32.5959 21.8623 33.3457 19.0528 33.1817C16.2434 33.0178 13.5638 31.9489 11.4183 30.1364L10.0481 31.4546C12.5046 33.5659 15.5853 34.8234 18.824 35.0366C22.0627 35.2499 25.283 34.4073 27.9976 32.6364L26.9928 31.0455Z" fill="#41395F"/>
<path d="M1.8726 20.9099H0C0.202785 25.5925 2.0516 30.0555 5.22369 33.5198C8.39579 36.9841 12.6897 39.2296 17.3558 39.8644V37.9099C13.205 37.2786 9.39946 35.2436 6.5795 32.1474C3.75955 29.0512 2.09734 25.0828 1.8726 20.9099ZM2.78606 9.72807C1.38328 12.0973 0.481822 14.7269 0.137019 17.4553H2.00962C2.38786 14.5067 3.50136 11.699 5.2487 9.28812C6.99604 6.87722 9.32169 4.93971 12.0138 3.65204C14.7059 2.36438 17.679 1.76749 20.6622 1.91573C23.6454 2.06397 26.5439 2.95264 29.0937 4.5008L30.1442 2.90989C27.9068 1.53244 25.4152 0.614232 22.8159 0.209273C20.2167 -0.195687 17.5623 -0.0792153 15.0089 0.551835C12.4556 1.18289 10.0548 2.31577 7.94786 3.88384C5.84093 5.45191 4.07039 7.4235 2.74038 9.68262L2.78606 9.72807Z" fill="#41395F"/>
<path d="M31.0577 12.7273L32.6562 11.6819C31.5156 9.93165 30.0206 8.43746 28.2669 7.29477C26.5132 6.15208 24.5392 5.38601 22.4712 5.04551L22.1514 6.90915C23.949 7.22618 25.6624 7.90589 27.1862 8.90647C28.71 9.90705 30.012 11.2073 31.012 12.7273H31.0577ZM16.5793 18.8182L16.8534 18.1819C17.3432 17.374 18.1293 16.7873 19.0457 16.5455L19.8678 16.4546C20.5103 16.4585 21.1405 16.631 21.6947 16.9546C22.3798 17.4091 22.9279 18.0455 23.2019 18.7728H25.1202C24.8462 17.4091 23.9784 16.1364 22.6538 15.3637C21.9249 14.9039 21.0941 14.6282 20.2338 14.5608C19.3734 14.4933 18.5095 14.636 17.7172 14.9765C16.9248 15.317 16.2281 15.845 15.6875 16.5145C15.1469 17.1841 14.7789 17.9749 14.6154 18.8182H16.5793ZM23.2019 21.1819L22.8365 21.8182C22.3468 22.6261 21.5606 23.2129 20.6442 23.4546C19.7308 23.6819 18.8173 23.5455 17.9952 23.0455C17.3162 22.6205 16.8013 21.9799 16.5337 21.2273H14.6154V21.3182C14.9808 22.7273 15.8486 23.9546 17.1274 24.6819C17.7362 25.0533 18.4148 25.2973 19.1215 25.3989C19.8283 25.5005 20.5484 25.4576 21.238 25.2728C22.2216 25.0354 23.1173 24.5249 23.8207 23.8007C24.5242 23.0764 25.0065 22.1683 25.2115 21.1819H23.2019Z" fill="#41395F"/>
</svg>
